<?xml version="1.0" encoding="utf-8"?><svg xmlns="http://www.w3.org/2000/svg" xmlns:xlink="http://www.w3.org/1999/xlink" width="1013" height="708" preserveAspectRatio="xMidYMid" viewBox="0 0 1013 708" style="z-index:1;margin-right:-2px;display:block;background-repeat-y:initial;background-repeat-x:initial;background-color:#00479D;animation-play-state:running" ><g transform="" style="animation-play-state:running" ><linearGradient id="lg-0.9360915167936465" x1="0" x2="1" y1="0" y2="0" style="animation-play-state:running" ><stop stop-color="#0061d5" offset="0" style="animation-play-state:running" ></stop>

  
<stop stop-color="#0061d5" offset="1" style="animation-play-state:running" ></stop></linearGradient>
<path fill="url(#lg-0.9360915167936465)" opacity="1" d="M 0 0 L 0 518.859 Q 101.3 598.206 202.6 553.526 T 405.2 486.181 T 607.8 367.47 T 810.4 278.313 T 1013 345.205 L 1013 0 Z" style="opacity:0.6;animation-play-state:running" ></path>
<path fill="url(#lg-0.9360915167936465)" opacity="1" d="M 0 0 L 0 479.254 Q 101.3 470.265 202.6 453.292 T 405.2 448.077 T 607.8 354.815 T 810.4 226.462 T 1013 232.742 L 1013 0 Z" style="opacity:1;animation-play-state:running" ></path>
<path fill="url(#lg-0.9360915167936465)" opacity="0.61" d="M 0 0 L 0 522.715 Q 101.3 454.039 202.6 428.005 T 405.2 409.916 T 607.8 375.621 T 810.4 231.502 T 1013 201.258 L 1013 0 Z" style="opacity:0.4;animation-play-state:running" ></path>
<path fill="url(#lg-0.9360915167936465)" opacity="1" d="M 0 0 L 0 490.271 Q 101.3 488.809 202.6 441.025 T 405.2 384.304 T 607.8 359.382 T 810.4 253.348 T 1013 263.806 L 1013 0 Z" style="opacity:0.5;animation-play-state:running" ></path>/
<path fill="url(#lg-0.9360915167936465)" opacity="1" d="M 0 0 L 0 552.304 Q 101.3 447.402 202.6 413.239 T 405.2 375.644 T 607.8 380.78 T 810.4 264.472 T 1013 253.812 L 1013 0 Z" style="opacity:0.3;animation-play-state:running" ></path>
</g></svg>